<svg width="20" height="20" viewBox="0 0 20 20" fill="none" xmlns="http://www.w3.org/2000/svg">
<path d="M17.6611 12.0544C17.6611 16.1665 14.1552 19.5 9.83053 19.5C5.50585 19.5 2 16.1665 2 12.0544C2 10.0716 2.81511 8.26984 4.1441 6.93552M8.32466 16.0636C8.32466 16.0636 8.927 16.6363 9.83053 16.6363C10.734 16.6363 11.3364 16.0636 11.3364 16.0636M14.047 13.1999C14.047 13.5162 13.7773 13.7726 13.4446 13.7726C13.1119 13.7726 12.8423 13.5162 12.8423 13.1999C12.8423 12.8835 13.1119 12.6271 13.4446 12.6271C13.7773 12.6271 14.047 12.8835 14.047 13.1999ZM6.81879 13.1999C6.81879 13.5162 6.54911 13.7726 6.21644 13.7726C5.88377 13.7726 5.61409 13.5162 5.61409 13.1999C5.61409 12.8835 5.88377 12.6271 6.21644 12.6271C6.54911 12.6271 6.81879 12.8835 6.81879 13.1999Z" stroke="#71757C" stroke-width="1.2" stroke-linecap="round" stroke-linejoin="round"/>
<path d="M12.5 3.0625C12.0179 3.0625 11.5467 3.20546 11.1458 3.4733C10.745 3.74113 10.4326 4.12182 10.2481 4.56721C10.0636 5.01261 10.0153 5.50271 10.1094 5.97554C10.2034 6.44836 10.4356 6.88269 10.7765 7.22358C11.1174 7.56447 11.5517 7.79662 12.0245 7.89067C12.4973 7.98472 12.9874 7.93645 13.4328 7.75196C13.8782 7.56747 14.2589 7.25505 14.5267 6.85421C14.7946 6.45336 14.9375 5.9821 14.9375 5.5C14.9369 4.85374 14.6798 4.23415 14.2229 3.77717C13.7659 3.3202 13.1463 3.06318 12.5 3.0625ZM12.5 7.125C12.1786 7.125 11.8645 7.0297 11.5972 6.85114C11.33 6.67258 11.1217 6.41879 10.9987 6.12186C10.8757 5.82493 10.8436 5.4982 10.9063 5.18298C10.969 4.86776 11.1237 4.57822 11.351 4.35095C11.5782 4.12369 11.8678 3.96893 12.183 3.90623C12.4982 3.84353 12.825 3.87571 13.1219 3.9987C13.4188 4.12169 13.6726 4.32997 13.8512 4.5972C14.0297 4.86443 14.125 5.17861 14.125 5.5C14.125 5.93098 13.9538 6.3443 13.6491 6.64905C13.3443 6.9538 12.931 7.125 12.5 7.125ZM18.0829 4.44426C18.0716 4.38705 18.0481 4.33295 18.014 4.28563C17.9799 4.23832 17.9361 4.19889 17.8854 4.17004L16.3706 3.30676L16.3645 1.5995C16.3643 1.5407 16.3514 1.48264 16.3265 1.42933C16.3017 1.37603 16.2656 1.32874 16.2208 1.29075C15.6713 0.825943 15.0385 0.469748 14.3561 0.241097C14.3024 0.222907 14.2454 0.216175 14.1889 0.221335C14.1324 0.226496 14.0776 0.243434 14.028 0.271058L12.5 1.1252L10.9705 0.269534C10.9209 0.241754 10.8661 0.224689 10.8095 0.21944C10.7529 0.214192 10.6958 0.220878 10.6419 0.239065C9.96003 0.469388 9.32798 0.826942 8.77929 1.29278C8.73449 1.33072 8.69844 1.37792 8.67363 1.43114C8.64882 1.48435 8.63584 1.54231 8.63558 1.60102L8.62797 3.30981L7.11316 4.17309C7.06248 4.20194 7.01861 4.24136 6.98452 4.28868C6.95044 4.336 6.92694 4.3901 6.91562 4.44731C6.77699 5.14397 6.77699 5.86112 6.91562 6.55778C6.92694 6.61498 6.95044 6.66909 6.98452 6.7164C7.01861 6.76372 7.06248 6.80314 7.11316 6.832L8.62797 7.69528L8.63406 9.40254C8.63424 9.46134 8.64719 9.5194 8.672 9.5727C8.69681 9.62601 8.7329 9.67329 8.77777 9.71129C9.32726 10.1761 9.96004 10.5323 10.6425 10.7609C10.6962 10.7791 10.7532 10.7859 10.8097 10.7807C10.8662 10.7755 10.9209 10.7586 10.9705 10.731L12.5 9.87481L14.0296 10.7305C14.0901 10.7642 14.1583 10.7817 14.2276 10.7813C14.272 10.7812 14.3161 10.774 14.3581 10.7599C15.04 10.5299 15.672 10.1727 16.2208 9.70723C16.2656 9.66929 16.3016 9.62208 16.3264 9.56887C16.3513 9.51566 16.3642 9.4577 16.3645 9.39899L16.3721 7.6902L17.8869 6.82692C17.9376 6.79807 17.9815 6.75864 18.0155 6.71132C18.0496 6.66401 18.0731 6.60991 18.0844 6.5527C18.2223 5.8566 18.2218 5.14016 18.0829 4.44426ZM17.3212 6.21703L15.8704 7.04223C15.8068 7.07837 15.7542 7.13101 15.718 7.19457C15.6886 7.24535 15.6576 7.29918 15.6261 7.34996C15.5858 7.414 15.5644 7.48809 15.5642 7.56375L15.5566 9.20145C15.1666 9.50769 14.7321 9.75257 14.2682 9.92762L12.8047 9.11207C12.744 9.07846 12.6756 9.06097 12.6062 9.06129H12.5965C12.5351 9.06129 12.4731 9.06129 12.4117 9.06129C12.339 9.05948 12.2671 9.077 12.2035 9.11207L10.7389 9.92965C10.274 9.75594 9.8384 9.51226 9.44707 9.20703L9.44148 7.57188C9.44123 7.49606 9.41977 7.42183 9.37953 7.35758C9.34804 7.3068 9.31707 7.25602 9.28812 7.20219C9.25223 7.13764 9.1996 7.08396 9.13578 7.0468L7.68343 6.21957C7.60828 5.74417 7.60828 5.2599 7.68343 4.7845L9.13172 3.95778C9.19528 3.92163 9.24791 3.869 9.28406 3.80543C9.31351 3.75465 9.34449 3.70082 9.37597 3.65004C9.41628 3.586 9.43774 3.51192 9.43793 3.43625L9.44554 1.79856C9.83551 1.49232 10.27 1.24744 10.7339 1.07239L12.1953 1.88793C12.259 1.92319 12.3309 1.94073 12.4036 1.93871C12.465 1.93871 12.5269 1.93871 12.5884 1.93871C12.6611 1.94053 12.7329 1.923 12.7966 1.88793L14.2611 1.07035C14.726 1.24406 15.1617 1.48775 15.553 1.79297L15.5586 3.42813C15.5588 3.50394 15.5803 3.57817 15.6205 3.64243C15.652 3.69321 15.683 3.74399 15.712 3.79782C15.7478 3.86237 15.8005 3.91604 15.8643 3.95321L17.3166 4.78043C17.3928 5.25621 17.3937 5.741 17.3192 6.21703H17.3212Z" fill="#71757C"/>
</svg>
